<?xml version="1.0" encoding="utf-8"?>
<!-- Generator: Adobe Illustrator 26.0.1, SVG Export Plug-In . SVG Version: 6.00 Build 0)  -->
<svg version="1.1" xmlns="http://www.w3.org/2000/svg" xmlns:xlink="http://www.w3.org/1999/xlink" x="0px" y="0px"
	 viewBox="0 0 263 76" style="enable-background:new 0 0 263 76;" xml:space="preserve">
<style type="text/css">
	.st0{fill:#FFFFFF;}
	.st1{fill:#DCF0FA;}
	.st2{fill:none;stroke:#212121;stroke-miterlimit:10;}
	.st3{fill:#27B0E5;}
	.st4{fill:#5F6360;}
	.st5{fill:#51B4E6;}
	.st6{fill:#4FB4E6;}
	.st7{fill:none;stroke:#104459;stroke-width:2.087;stroke-linecap:round;stroke-linejoin:round;stroke-miterlimit:10;}
	
		.st8{fill:none;stroke:#235A79;stroke-width:6.7569;stroke-linecap:round;stroke-linejoin:round;stroke-miterlimit:10;stroke-dasharray:0,15.9384;}
	.st9{fill:#104459;}
	.st10{fill:#235A79;}
	.st11{fill:#FA4616;}
</style>
<g id="Grid_Template">
</g>
<g id="Design">
	<g id="BOOTSTRAP__Grid_options">
	</g>
	<g>
		<g>
			<g>
				<path class="st3" d="M82.5,19h6.3c0,2.9,1.7,4.7,4.4,4.7c2.3,0,3.6-1.1,3.6-3c0-1.7-0.9-2.5-3.3-3.5l-4.9-1.9
					c-3.6-1.4-5.5-3.9-5.5-7.4c0-4.8,3.8-8,9.7-8c6,0,9.9,3.4,9.9,8.6h-6.3c0-2.5-1.3-3.9-3.8-3.9c-2.1,0-3.3,1-3.3,2.7
					c0,1.5,1,2.4,3.7,3.5l4.5,1.8c3.8,1.5,5.5,4,5.5,7.7c0,5.1-3.9,8.4-10,8.4C86.4,28.7,82.5,25.1,82.5,19z"/>
				<path class="st3" d="M119.1,23.2v4.7c-0.9,0.2-2.2,0.3-3.9,0.3c-2.8,0-6.6-0.6-6.6-6.9v-7.4h-3V9.2h2.9V3.7h5.9v5.6h4.2v4.7
					h-4.2v6.2c0,2.8,1.1,3.2,2.6,3.2C117.7,23.3,118.6,23.3,119.1,23.2z"/>
				<path class="st3" d="M123.5,9.2h6v3.9c0.7-2.8,2.9-4.2,5.2-4.2c0.7,0,1.1,0,1.5,0.2v5.5c-0.7-0.1-1-0.1-1.8-0.1
					c-3.2,0-4.9,2.1-4.9,6.3v7.2h-6V9.2z"/>
				<path class="st3" d="M138.2,18.6c0-5.6,3.5-9.9,8.9-9.9c2.7,0,4.9,1.3,5.9,3.2V9.2h5.9v18.7H153v-2.6c-1,1.9-3.3,3.1-5.9,3.1
					C141.4,28.4,138.2,24.2,138.2,18.6z M153.2,18.6c0-2.7-1.5-4.9-4.5-4.9c-2.8,0-4.5,2.1-4.5,4.9c0,2.8,1.7,4.9,4.5,4.9
					C151.7,23.5,153.2,21.3,153.2,18.6z"/>
				<path class="st3" d="M176.3,23.2v4.7c-0.9,0.2-2.2,0.3-3.9,0.3c-2.8,0-6.6-0.6-6.6-6.9v-7.4h-2.9V9.2h2.9V3.7h5.9v5.6h4.2v4.7
					h-4.2v6.2c0,2.8,1.1,3.2,2.6,3.2C175,23.3,175.8,23.3,176.3,23.2z"/>
				<path class="st3" d="M199,20.2h-13.8c0.1,2.4,1.7,3.8,4.4,3.8c1.8,0,3-0.5,3.5-1.7h5.8c-0.6,3.7-4.3,6.1-9.3,6.1
					c-6.4,0-10.3-3.6-10.3-9.9c0-6.1,4-9.9,10.1-9.9c5.8,0,9.8,3.6,9.8,8.9C199.1,18.6,199,19.2,199,20.2z M193.2,16.5
					c0-2.5-1.4-3.8-3.9-3.8c-2.6,0-4.1,1.5-4.2,3.8H193.2z"/>
				<path class="st3" d="M222.9,9.2v17.5c0,3.6-1.3,6.3-3.6,7.9c-1.7,1.2-4,1.7-6.7,1.7s-4.9-0.4-6.7-1.5c-1.9-1.2-3.3-3.2-3.3-5.2
					h6c0.3,1.5,1.5,2.4,3.9,2.4c2.8,0,4.4-1.2,4.4-4.5v-2.5c-0.9,1.9-3.4,3-5.9,3c-5.6,0-8.9-4-8.9-9.5s3.6-9.7,9-9.7
					c2.6,0,4.9,1.2,5.8,3.2V9.2L222.9,9.2L222.9,9.2z M217.2,18.5c0-2.7-1.7-4.9-4.5-4.9c-2.7,0-4.4,2.1-4.4,4.9s1.8,4.9,4.4,4.9
					C215.5,23.4,217.2,21.2,217.2,18.5z"/>
				<path class="st3" d="M227.8,4c0-2,1.5-3.6,3.6-3.6c2.1,0,3.7,1.6,3.7,3.6c0,2-1.5,3.6-3.7,3.6C229.3,7.6,227.8,5.9,227.8,4z
					 M228.5,9.2h5.9v18.7h-5.9V9.2z"/>
				<path class="st3" d="M238.6,18.6c0-5.9,3.8-9.9,10-9.9c5.6,0,9.2,2.9,9.7,7.6h-6c-0.4-1.8-1.5-2.6-3.7-2.6
					c-2.6,0-4.1,1.7-4.1,4.8c0,3.1,1.5,4.8,4.1,4.8c2.2,0,3.3-0.8,3.7-2.4h6c-0.5,4.5-4.1,7.4-9.7,7.4
					C242.5,28.4,238.6,24.5,238.6,18.6z"/>
			</g>
			<path class="st4" d="M90.1,42.6h-8.3v-2.5h19.2v2.5h-8.4v24.7h-2.6L90.1,42.6L90.1,42.6z"/>
			<path class="st4" d="M115.6,59h-14.3c0,4,2.4,6.5,6.2,6.5c2.7,0,4.6-1.2,5.4-3.2h2.5c-0.7,3.2-3.9,5.4-7.9,5.4
				c-5.3,0-8.7-3.7-8.7-9.3s3.5-9.3,8.6-9.3c5,0,8.3,3.4,8.3,8.2C115.7,57.9,115.6,58.4,115.6,59z M113.2,57c0-3.5-2.2-5.9-5.9-5.9
				c-3.5,0-5.8,2.4-6,5.9H113.2z"/>
			<path class="st4" d="M117.8,58.4c0-5.5,3.4-9.3,8.8-9.3c4.6,0,7.7,2.5,8.1,6.4h-2.5c-0.5-2.7-2.5-4.2-5.6-4.2
				c-3.9,0-6.3,2.7-6.3,7c0,4.3,2.4,7,6.3,7c3.1,0,5.2-1.5,5.6-4.1h2.5c-0.5,3.8-3.5,6.3-8.1,6.3C121.2,67.7,117.8,63.9,117.8,58.4z
				"/>
			<path class="st4" d="M153.7,56.6v10.6h-2.5v-9.7c0-4.2-1.6-6.3-5-6.3c-3.9,0-5.8,2.9-5.8,7v9h-2.5V40.1h2.5v13.6
				c0.8-2.6,3.1-4.5,6.6-4.5C151.4,49.1,153.7,51.8,153.7,56.6z"/>
			<path class="st4" d="M157.8,49.6h2.5v4c0.9-2.6,3.1-4.5,6.6-4.5c4.5,0,6.7,2.6,6.7,7.5v10.6h-2.5v-9.7c0-4.2-1.6-6.3-5-6.3
				c-3.9,0-5.8,2.9-5.8,7v9h-2.5L157.8,49.6L157.8,49.6z"/>
			<path class="st4" d="M176.7,58.4c0-5.1,3.5-9.3,9.1-9.3c5.6,0,9.1,4.2,9.1,9.3c0,5.2-3.5,9.3-9.1,9.3
				C180.1,67.7,176.7,63.6,176.7,58.4z M192.4,58.4c0-3.9-2.5-7-6.6-7c-4.1,0-6.6,3.1-6.6,7.1c0,3.9,2.5,7,6.6,7
				C189.9,65.4,192.4,62.3,192.4,58.4z"/>
			<path class="st4" d="M198.1,40.1h2.5v27.2h-2.5V40.1z"/>
			<path class="st4" d="M203.9,58.4c0-5.1,3.5-9.3,9.1-9.3c5.6,0,9.1,4.2,9.1,9.3c0,5.2-3.5,9.3-9.1,9.3
				C207.4,67.7,203.9,63.6,203.9,58.4z M219.6,58.4c0-3.9-2.5-7-6.6-7c-4.1,0-6.6,3.1-6.6,7.1c0,3.9,2.5,7,6.6,7
				C217.1,65.4,219.6,62.3,219.6,58.4z"/>
			<path class="st4" d="M242.3,49.6v17.6c0,3.2-1.1,5.7-3,7.2c-1.5,1.2-3.5,1.7-6.1,1.7c-2.5,0-4.8-0.6-6.3-1.8
				c-1.5-1.1-2.4-2.8-2.4-4.5h2.6c0.2,2.3,2.2,4.2,6.2,4.2c4.3,0,6.6-2.2,6.6-6.6v-3.9c-1.2,2.6-3.9,4.3-6.9,4.3
				c-5.3,0-8.8-4-8.8-9.3c0-5.3,3.7-9.3,8.9-9.3c3.1,0,5.7,1.6,6.9,4.3v-3.8L242.3,49.6L242.3,49.6z M240,58.4
				c0-3.9-2.7-7.1-6.8-7.1c-3.9,0-6.6,3-6.6,7.1c0,4,2.8,7,6.6,7C237.3,65.5,240,62.4,240,58.4z"/>
			<path class="st4" d="M262.8,49.6v18.3c0,2.9-0.9,5-2.5,6.4c-1.4,1.2-3.3,1.8-5.6,1.8c-2.5,0-4.5-0.6-5.9-1.8
				c-1.2-1.1-1.9-2.6-2-4.5h2.5c0.1,2.3,1.5,4.2,5.3,4.2c3.5,0,5.6-1.9,5.6-6.3v-4.3c-1,2.4-3.2,4.3-6.6,4.3c-4.9,0-6.9-3-6.9-7.8
				V49.6h2.5v9.8c0,3.7,1.2,6,5.2,6c3.9,0,5.8-3.5,5.8-6.8v-9.1H262.8z"/>
			<g>
				<path class="st5" d="M22.8-0.1C10.2-0.1,0,10.3,0.2,23c0.2,12.4,10.6,22.2,23,22.2c0,0,1.7,0,3.7,0c0-5.1,0-14.4,0-14.4H16.7
					V16.4h34.9c9.1,0,16.4-7.4,16.4-16.4C68.1-0.1,26.9-0.1,22.8-0.1z"/>
			</g>
			<path class="st4" d="M51.6,23.4v7.4H41.4c0,0,0,16,0,20.6c-10.3,0-23.6,0-24.7,0c-9.1,0-16.4,7.4-16.4,16.4h45.2
				c12.5,0,22.6-10.1,22.6-22.6C68.1,34.8,61.1,26.1,51.6,23.4z"/>
		</g>
	</g>
</g>
</svg>
